HIERARCHY
ROOT hip
{
	OFFSET 0.000000 0.000000 0.000000 
	CHANNELS 6 Xposition Yposition Zposition Xrotation Zrotation Yrotation
	JOINT abdomen
	{
		OFFSET 0.000000 3.402643 0.000000 
		CHANNELS 3 Xrotation Zrotation Yrotation
		JOINT chest
		{
			OFFSET 0.000000 8.438565 -0.680529 
			CHANNELS 3 Xrotation Zrotation Yrotation
			JOINT neck
			{
				OFFSET 0.000000 10.207942 -0.272212 
				CHANNELS 3 Xrotation Zrotation Yrotation
				JOINT head
				{
					OFFSET 0.000000 3.130431 0.000000 
					CHANNELS 3 Xrotation Zrotation Yrotation
					End Site
					{
						OFFSET 0.000000 3.130435 0.000000 
					}
				}
			}
			JOINT lCollar
			{
				OFFSET 3.470700 6.669187 -0.816635 
				CHANNELS 3 Yrotation Zrotation Xrotation
				JOINT lShldr
				{
					OFFSET 3.198488 0.000000 0.000000 
					CHANNELS 3 Zrotation Yrotation Xrotation
					JOINT lForeArm
					{
						OFFSET 10.139888 0.000000 0.000000 
						CHANNELS 3 Yrotation Zrotation Xrotation
						JOINT lHand
						{
							OFFSET 8.370511 0.000000 0.000000 
							CHANNELS 3 Zrotation Yrotation Xrotation
							End Site
							{
								OFFSET 4.083176 0.000000 0.000000 
							}
						}
					}
				}
			}
			JOINT rCollar
			{
				OFFSET -3.470700 6.669187 -0.816635 
				CHANNELS 3 Yrotation Zrotation Xrotation
				JOINT rShldr
				{
					OFFSET -3.198488 0.000000 0.000000 
					CHANNELS 3 Zrotation Yrotation Xrotation
					JOINT rForeArm
					{
						OFFSET -10.139888 0.000000 0.000000 
						CHANNELS 3 Yrotation Zrotation Xrotation
						JOINT rHand
						{
							OFFSET -8.370511 0.000000 0.000000 
							CHANNELS 3 Zrotation Yrotation Xrotation
							End Site
							{
								OFFSET -4.083176 0.000000 0.000000 
							}
						}
					}
				}
			}
		}
	}
	JOINT lThigh
	{
		OFFSET 5.308129 -1.633274 1.361059 
		CHANNELS 3 Xrotation Zrotation Yrotation
		JOINT lShin
		{
			OFFSET -2.041588 -20.007561 0.000000 
			CHANNELS 3 Xrotation Zrotation Yrotation
			JOINT lFoot
			{
				OFFSET 0.000000 -19.190928 -1.224953 
				CHANNELS 3 Xrotation Yrotation Zrotation
				End Site
				{
					OFFSET 0.000000 -2.449906 4.627600 
				}
			}
		}
	}
	JOINT rThigh
	{
		OFFSET -5.308129 -1.633274 1.361059 
		CHANNELS 3 Xrotation Zrotation Yrotation
		JOINT rShin
		{
			OFFSET 2.041588 -20.007561 0.000000 
			CHANNELS 3 Xrotation Zrotation Yrotation
			JOINT rFoot
			{
				OFFSET 0.000000 -19.190928 -1.224953 
				CHANNELS 3 Xrotation Yrotation Zrotation
				End Site
				{
					OFFSET 0.000000 -2.449906 4.627600 
				}
			}
		}
	}
}
MOTION
Frames: 14
Frame Time: 0.033333
9.077174 40.115921 37.380890 -14.765624 5.976563 -149.579071 31.533205 11.845703 -8.581979 -16.699219 1.660156 -13.427451 -34.394531 1.123047 -2.304496 18.447268 -0.878906 -2.470853 -0.908203 20.986328 1.132813 75.000015 -119.150398 -64.783920 -72.060547 -3.466797 -76.425194 -10.693359 31.650391 -6.552734 7.011719 7.119140 -0.341797 68.525391 -5.322266 -19.472656 61.572262 3.623047 -73.066406 -20.878906 -25.898438 8.359375 -9.109607 21.654455 6.905405 43.499752 -0.588738 -2.998122 -22.185472 33.012959 8.404658 -66.906822 -20.927565 17.516239 50.876270 -0.525241 2.866223 1.877108 1.600026 4.852307 
8.479158 40.694092 38.743267 -14.423830 5.273438 -149.599991 31.064451 12.734375 -8.466797 -16.874998 2.714844 -13.603052 -34.238281 -0.039063 -1.630866 19.150389 -1.591797 -2.099609 0.556641 22.597654 1.015625 78.017593 -115.908203 -69.725586 -73.642578 -3.613281 -68.125000 -12.070312 29.296873 -6.879987 6.494140 6.054687 -0.332031 69.785156 -3.886719 -20.742188 67.275391 3.681640 -74.228516 -20.878906 -23.378904 7.568359 -10.866819 20.590033 7.229539 44.750576 -0.764531 -2.769638 -18.597155 31.409418 5.682356 -64.184311 -22.157934 19.435043 44.914200 0.032277 2.666022 6.496846 0.680397 4.978626 
7.984405 41.450249 40.358841 -14.941406 5.097657 -150.985458 30.585936 12.832032 -7.646485 -17.744141 3.769531 -12.899749 -34.599606 -1.035156 -1.152520 20.205078 -2.294922 -2.070312 1.142578 23.671875 1.099595 -95.908203 -65.253906 101.230469 -75.527344 -3.437500 -60.507813 -10.244141 28.056639 -5.747360 5.800781 5.000000 -0.341797 70.449219 -0.507813 -21.484461 72.119141 3.603516 -73.789680 -20.253904 -19.843750 6.305280 -12.663271 19.320515 8.830363 45.443375 -0.774432 -2.809268 -17.176369 30.331276 4.819254 -63.332375 -21.640623 20.912880 40.170315 0.403840 2.597850 12.933132 -1.797523 5.301120 
7.729619 42.235435 41.941589 -16.171875 5.097657 -152.567490 30.234375 11.767579 -6.716758 -18.974611 4.296875 -11.503906 -35.644531 -0.908203 -1.523592 21.601561 -2.832031 -2.558594 1.552734 24.394529 1.259766 -88.115234 -64.443359 89.395493 -78.378906 -3.613281 -54.335941 -8.251954 28.017578 -4.619141 5.273437 4.648438 -0.263672 70.322258 2.851563 -22.470703 76.455078 3.720703 -75.537109 -19.814453 -16.464844 5.075357 -13.876597 18.055630 10.570143 44.196930 -0.595467 -3.180482 -15.649569 28.426027 3.294478 -64.757828 -20.058681 20.188246 40.699261 0.811105 2.590105 13.970038 -2.870526 5.576006 
7.777879 42.815567 43.282032 -17.412111 4.746094 -152.402344 29.287109 10.156251 -6.384995 -20.380859 4.130859 -10.458282 -36.132813 -1.064453 -2.744322 22.480469 -2.304688 -3.584377 1.132813 24.199219 1.089747 -80.117188 -61.904301 77.968750 -82.021484 -3.437500 -46.825592 -5.761718 27.080078 -3.354930 5.449219 4.824218 -0.293790 69.628906 4.619141 -23.632025 81.201172 3.632812 -78.379524 -19.414063 -12.265625 3.769531 -16.891916 18.267506 10.588317 44.727154 -0.764801 -3.136953 -12.531815 22.824379 0.384505 -67.280304 -18.300861 17.691147 48.574299 -0.401438 3.350824 11.033766 0.847436 4.905361 
7.928916 43.003960 44.269093 -17.763672 4.218750 -150.283203 28.144531 8.437500 -6.796876 -21.093750 3.251953 -9.941407 -36.074219 -1.972656 -4.404634 23.369141 -1.435547 -5.146484 0.566406 22.070313 1.035156 -72.714844 -59.687500 68.595085 -84.550781 -3.281250 -39.619141 -2.402344 24.873047 -1.734173 5.976563 5.166016 -0.380859 67.968750 5.205078 -25.009766 87.109375 3.554688 -80.049431 -20.664063 -8.291017 2.578125 -20.511732 19.231230 8.391255 48.063019 -0.725840 -3.090210 -9.960067 14.717879 -2.220956 -67.199104 -17.587950 15.535353 55.760185 -0.695776 3.328488 6.390584 -1.147250 4.976171 
7.800052 42.730061 44.877766 -16.533203 2.460938 -148.183594 27.021482 6.943359 -7.343751 -21.796877 1.669922 -9.599608 -33.212891 -3.173828 -5.507813 24.072268 -0.732422 -6.357547 0.195313 18.544910 0.875801 -66.259766 -56.777344 60.937500 -85.097656 -3.095703 -32.343224 0.507813 20.224583 -0.553264 6.494141 5.888671 -0.312500 65.361328 4.716797 -26.561699 94.082031 3.515625 -79.042969 -21.806641 -5.312500 1.796875 -20.712675 19.794643 6.533689 52.453537 -0.092057 -3.384139 -9.121096 13.820127 -2.583140 -63.900532 -18.632555 13.875558 57.191433 -0.730659 3.183979 -1.207311 -9.692067 4.524100 
7.212448 42.116615 45.198097 -14.062500 0.175781 -148.183578 25.048828 5.722657 -7.587890 -22.500000 -0.263672 -9.082031 -26.894531 -3.867188 -5.420581 24.941408 -1.435547 -6.513917 0.175781 14.677727 0.583463 -62.861332 -53.437496 56.982422 -85.771484 -2.714844 -25.097834 2.919922 14.423708 0.256330 6.142578 6.582031 -0.352682 63.095703 5.205079 -27.910158 102.324219 3.613281 -77.587891 -22.509766 -2.958984 0.908195 -14.891435 20.290974 5.721586 55.797241 -0.256613 -3.443542 -11.213406 21.337297 -0.496267 -60.833961 -19.852896 14.007249 57.549446 -0.711077 3.034442 -5.691636 -11.403151 3.440359 
6.319466 41.290882 45.331116 -10.556642 -1.767578 -150.478516 22.041016 5.390625 -7.695313 -24.082031 -2.197405 -8.925536 -17.802734 -3.876953 -3.994141 25.986328 -3.027344 -5.430203 0.205078 12.392579 0.605469 -61.845703 -47.851563 54.951172 -89.287109 -2.539063 -20.868708 5.468750 11.220702 0.656197 4.755859 6.923828 -0.421099 62.324219 7.509767 -27.938173 111.611328 3.632813 -74.824837 -22.041014 -0.527344 -0.048918 -5.272922 20.151592 5.572860 57.221748 -0.256949 -2.993743 -10.331170 27.746834 0.420194 -59.296684 -20.214764 14.340371 59.647839 -0.887322 3.226738 -5.585755 -8.064962 3.965275 
5.493979 40.405373 45.452271 -7.207032 -2.294922 -152.060547 17.792969 5.908203 -8.631808 -25.488281 -3.076172 -10.000001 -8.583984 -3.896484 -1.337891 27.558594 -4.794922 -4.151207 0.566406 11.689453 0.535131 -62.607418 -41.523438 54.729851 -94.873047 -2.451172 -19.609377 7.207031 7.841797 0.712891 2.490234 6.044921 -0.460013 63.027348 10.634766 -26.443510 122.109367 3.662110 -68.144531 -21.533203 -0.820313 0.146346 4.364335 18.952515 2.507343 55.823692 -0.195243 -3.230051 -6.199739 26.370024 -1.834285 -58.582977 -20.566069 13.896007 62.108917 -1.072037 3.372492 -4.180290 -4.008450 4.592326 
4.889349 39.562737 45.764500 -4.755859 -2.119127 -151.533722 12.773438 6.367188 -10.536027 -27.246092 -3.427734 -12.119723 -0.742188 -4.130860 1.015625 28.417969 -6.210938 -3.427734 0.742188 12.050756 0.496009 -65.839844 -35.283207 56.312721 -100.078125 -2.363281 -17.763271 9.785156 4.121094 0.527344 -0.332031 4.472656 -0.341797 63.222656 13.349610 -25.273436 132.822266 3.681641 -60.273434 -21.171875 -4.101563 1.337891 10.688566 17.697472 -1.565232 52.122047 -0.224278 -3.420381 -2.634102 20.049513 -3.456016 -57.378487 -21.444574 13.829209 63.134041 -1.063462 3.407002 -4.294673 -2.076647 4.431219 
4.469562 38.684086 46.442383 -2.646484 -1.767578 -150.127258 9.462891 5.947266 -12.557580 -28.652344 -3.603516 -14.063113 3.974610 -3.779297 2.382169 27.890627 -6.914063 -3.096879 0.380859 12.392566 0.564311 -69.755859 -30.253906 56.093754 -104.697266 -2.294922 -15.946873 10.429687 1.181641 0.136719 -3.505859 2.910156 -0.195312 62.792969 16.064453 -25.693361 142.666016 3.730469 -53.945007 -20.585938 -7.470703 2.410841 14.507371 17.816198 -1.714967 50.013218 -0.382366 -3.408475 -2.865754 17.726772 -3.943539 -56.557129 -22.157375 13.521698 64.381187 -1.239149 3.349197 -4.994211 -2.274919 4.555882 
4.136133 37.713810 47.543118 -0.537109 -1.767578 -149.599609 8.330078 5.566407 -13.612333 -29.179688 -4.130859 -15.126953 6.181641 -3.330078 -1.044922 25.947266 -8.828125 1.250000 -0.117188 12.216798 0.507813 -72.568359 -27.324219 53.623047 -106.699219 -2.158203 -12.783204 9.189452 -3.613281 -0.673828 -4.921875 2.392578 -0.166423 61.962891 17.656248 -27.412111 149.921875 3.613281 -49.707031 -20.419924 -7.480468 2.421875 16.924004 18.338703 2.229369 50.878223 -0.327923 -3.262061 -8.408532 20.299671 -1.731436 -57.199429 -22.840599 14.514678 66.136978 -1.248907 3.427718 -2.875184 -1.297391 4.774872 
3.874731 36.698582 48.897038 1.230469 -2.119140 -150.302734 8.300781 5.126953 -13.945313 -28.476561 -4.482422 -15.293733 6.865234 -2.744141 -0.586405 25.771484 -9.179688 1.943359 0.068359 11.689453 0.468750 -74.091797 -25.791018 49.780907 -103.652344 -1.982422 -8.905912 6.064453 -14.316406 -1.232882 -5.263672 2.578125 -0.312500 61.582031 18.291016 -25.898438 153.574219 3.476563 -44.121685 -21.464844 -5.498047 1.826172 19.176664 18.171761 4.928665 51.959091 -0.340580 -3.117940 -16.714684 21.861816 1.539820 -59.015102 -22.509041 16.182526 66.839279 -1.405941 3.316059 -0.122523 0.376639 4.990892 
